<?xml version="1.0" standalone="no"?><!-- Generator: Gravit.io --><svg xmlns="http://www.w3.org/2000/svg" xmlns:xlink="http://www.w3.org/1999/xlink" style="isolation:isolate" viewBox="513.707 -114.5 510.793 555.235" width="510.793" height="555.235"><path d=" M 547 386 C 532.467 369.277 512.011 290.508 520 250 Q 527.989 209.492 560 140 C 575.534 217.23 592.21 263.906 610 280 C 592.359 240.839 582.369 187.516 580 120 C 609.593 87.357 669.089 69.131 730 10 C 741.077 30.873 747.753 54.216 750 80 C 754.94 56.329 754.95 29.672 750 0 C 782.282 -26.098 832.292 -49.421 900 -70 C 905.71 -59.029 909.053 -39.019 910 -10 C 919.624 -38.925 922.967 -62.249 920 -80 C 947.588 -90.364 984.129 -81.476 1020 -110 C 1015.732 -45.923 993.251 -31.92 950 40 C 930.401 40.089 910.411 36.766 890 30 C 902.295 46.125 915.639 56.135 930 60 C 900.97 93.48 826.186 152.239 810 190 C 788.308 189.298 768.318 182.641 750 170 C 764.86 189.191 778.203 202.534 790 210 C 756.866 242.221 746.876 325.564 700 360 C 677.452 346.346 650.795 336.356 620 330 C 650.586 343.616 670.596 356.959 680 370 C 654.402 382.576 624.412 389.253 601.997 389.739 C 595.376 389.883 584.636 390.37 578.028 390.826 L 561 392 L 547 386 Z " fill="none" vector-effect="non-scaling-stroke" stroke-width="3" stroke="rgb(0,0,0)" stroke-linejoin="miter" stroke-linecap="square" stroke-miterlimit="3"/><defs><filter id="QQmqoRC6l6LJyKVglOXm28orqq2h7D1g" x="-200%" y="-200%" width="400%" height="400%"><feGaussianBlur xmlns="http://www.w3.org/2000/svg" stdDeviation="0"/></filter></defs><g filter="url(#QQmqoRC6l6LJyKVglOXm28orqq2h7D1g)"><path d=" M 523.536 433.536 L 526.464 436.464 C 528.416 438.416 531.158 438.082 532.584 435.72 C 618.516 293.388 733.879 156.751 888 20 L 957.849 -47.909 C 959.036 -49.063 958.962 -49.146 957.682 -48.095 L 910.176 -9.049 C 897.385 1.464 877.093 19.085 864.889 30.276 C 727.408 156.351 605.085 296.361 522.685 425.782 C 521.203 428.11 521.584 431.584 523.536 433.536 Z " fill="rgb(255,255,255)" vector-effect="non-scaling-stroke" stroke-width="2" stroke="rgb(0,0,0)" stroke-linejoin="miter" stroke-linecap="square" stroke-miterlimit="3"/></g></svg>